<?xml version="1.0" standalone="no"?>
<!DOCTYPE svg PUBLIC "-//W3C//DTD SVG 20010904//EN"
 "http://www.w3.org/TR/2001/REC-SVG-20010904/DTD/svg10.dtd">
<svg version="1.0" xmlns="http://www.w3.org/2000/svg"
 width="466.000000pt" height="393.000000pt" viewBox="0 0 466.000000 393.000000"
 preserveAspectRatio="xMidYMid meet">

<g transform="translate(0.000000,393.000000) scale(0.100000,-0.100000)"
fill="#000000" stroke="none">
<path d="M0 1965 l0 -1965 2330 0 2330 0 0 1965 0 1965 -2330 0 -2330 0 0
-1965z m2406 1204 c681 -94 1119 -768 928 -1428 -173 -596 -796 -938 -1393
-765 -477 139 -811 583 -811 1079 0 675 609 1207 1276 1114z m-1219 -528 c0
-11 -4 -18 -8 -15 -4 2 -10 -3 -13 -12 -3 -9 -2 -12 5 -9 5 4 3 -10 -5 -30 -9
-21 -16 -39 -16 -42 0 -2 -5 -1 -12 3 -6 4 -8 3 -5 -3 4 -6 -7 -53 -23 -104
-112 -357 -62 -739 137 -1037 302 -454 864 -650 1383 -481 50 16 105 36 121
45 17 8 36 13 42 11 7 -2 18 3 25 12 11 14 11 13 2 -7 -15 -30 -43 -47 -141
-83 -124 -45 -239 -69 -374 -75 -465 -24 -891 209 -1133 621 -177 301 -210
692 -86 1035 31 88 58 143 82 170 22 23 21 23 19 1z"/>
<path d="M2571 2408 c0 -18 -2 -124 -7 -235 l-7 -203 306 0 c169 0 307 2 307
5 0 16 -175 313 -181 309 -5 -3 -6 3 -2 12 5 13 3 15 -7 9 -9 -5 -11 -4 -6 4
4 6 -7 38 -25 70 l-33 59 -173 2 -174 1 2 -33z"/>
<path d="M1723 2077 c-22 -34 -46 -72 -52 -84 l-12 -23 258 0 258 0 43 79 c23
44 42 82 42 85 0 3 -111 6 -247 6 l-248 0 -42 -63z"/>
<path d="M1270 1870 c0 -65 17 -65 22 0 2 35 -1 50 -9 50 -9 0 -13 -17 -13
-50z"/>
<path d="M1351 1868 c1 -29 4 -42 6 -28 3 14 10 28 17 32 8 6 7 8 -3 8 -8 0
-11 7 -8 20 3 11 1 20 -4 20 -5 0 -8 -24 -8 -52z"/>
<path d="M1466 1905 c-3 -8 -2 -15 2 -15 5 0 16 -17 27 -37 10 -21 20 -33 22
-26 4 11 -33 93 -41 93 -2 0 -6 -7 -10 -15z"/>
<path d="M1570 1870 c0 -65 17 -65 22 0 2 35 -1 50 -9 50 -9 0 -13 -17 -13
-50z"/>
<path d="M1640 1870 c0 -27 5 -50 10 -50 6 0 10 9 10 20 0 26 15 25 34 -2 9
-12 19 -19 22 -15 4 4 1 13 -5 21 -9 10 -9 20 -2 34 13 25 -4 42 -41 42 -27 0
-28 -2 -28 -50z m55 20 c0 -8 -8 -16 -17 -18 -13 -2 -18 3 -18 18 0 15 5 20
18 18 9 -2 17 -10 17 -18z"/>
<path d="M1756 1904 c-9 -8 -16 -22 -16 -30 0 -22 19 -54 32 -54 9 0 9 3 0 12
-7 7 -12 24 -12 38 0 14 5 31 12 38 7 7 9 12 6 12 -4 0 -14 -7 -22 -16z"/>
<path d="M1819 1907 c8 -10 12 -31 9 -51 -3 -28 -1 -33 9 -24 22 18 16 66 -9
79 -21 11 -22 11 -9 -4z"/>
<path d="M1948 1870 c5 -65 22 -65 22 0 0 33 -4 50 -12 50 -9 0 -12 -15 -10
-50z"/>
<path d="M2020 1871 c0 -28 5 -53 10 -56 6 -4 10 6 10 24 0 20 6 31 18 34 15
4 15 5 -2 6 -13 1 -17 6 -13 21 3 13 0 20 -9 20 -10 0 -14 -14 -14 -49z"/>
<path d="M2110 1870 c0 -27 5 -50 10 -50 6 0 10 9 10 20 0 26 15 25 34 -2 9
-12 19 -19 22 -15 4 4 1 13 -5 21 -10 11 -9 19 1 36 11 17 11 22 -2 30 -23 15
-34 12 -20 -5 14 -17 5 -35 -17 -35 -11 0 -14 7 -11 25 4 17 1 25 -8 25 -10 0
-14 -14 -14 -50z"/>
<path d="M2217 1913 c-11 -10 -8 -93 3 -93 6 0 10 11 10 24 0 15 7 26 18 29
15 4 15 5 -2 6 -13 1 -17 6 -13 21 5 20 -3 26 -16 13z"/>
<path d="M2303 1904 c-4 -12 4 -25 26 -43 27 -22 30 -29 19 -41 -11 -12 -11
-12 5 -1 25 20 21 38 -14 56 -19 11 -29 22 -25 31 3 8 3 14 0 14 -2 0 -7 -7
-11 -16z"/>
<path d="M2420 1900 c-7 -13 -8 -20 -2 -16 6 4 18 -9 28 -29 21 -45 39 -46 20
0 -29 67 -32 71 -46 45z"/>
<path d="M2556 1904 c-33 -33 -4 -95 44 -93 9 0 6 4 -8 9 -12 5 -25 16 -28 25
-11 27 5 63 29 68 22 4 22 4 0 6 -12 0 -29 -6 -37 -15z"/>
<path d="M2697 1906 c-4 -9 -2 -16 3 -16 6 0 10 -6 10 -12 0 -7 9 -24 20 -38
26 -33 24 -15 -4 39 -17 33 -24 40 -29 27z"/>
<path d="M2770 1870 c0 -27 5 -50 10 -50 6 0 10 9 10 20 0 11 4 20 10 20 5 0
14 -9 20 -20 6 -11 16 -20 22 -20 6 0 3 11 -6 25 -10 15 -12 25 -6 25 20 0 6
45 -15 48 -18 2 -18 2 -3 -8 19 -12 13 -40 -8 -40 -8 0 -14 10 -14 25 0 14 -4
25 -10 25 -5 0 -10 -22 -10 -50z"/>
<path d="M2870 1871 c0 -28 5 -51 10 -51 6 0 10 9 10 20 0 11 4 20 10 20 5 0
14 -9 20 -20 6 -11 16 -20 22 -20 6 0 3 11 -6 25 -10 15 -12 25 -6 25 6 0 10
10 8 23 -2 17 -11 23 -35 25 l-33 3 0 -50z m50 19 c0 -11 -7 -20 -15 -20 -8 0
-15 9 -15 20 0 11 7 20 15 20 8 0 15 -9 15 -20z"/>
<path d="M2970 1871 c0 -52 19 -83 21 -34 0 15 2 40 3 56 1 16 -3 27 -11 27
-9 0 -13 -16 -13 -49z"/>
<path d="M3062 1868 c1 -46 2 -48 5 -14 l4 39 40 -39 c21 -21 39 -33 39 -27 0
12 -72 93 -83 93 -4 0 -6 -24 -5 -52z"/>
<path d="M3261 1898 c9 -22 10 -34 0 -54 -9 -20 -9 -25 1 -22 7 3 17 17 23 32
7 22 5 30 -14 49 l-22 22 12 -27z"/>
<path d="M3180 1890 c-13 -24 -5 -56 16 -64 12 -5 12 -2 3 15 -6 12 -8 32 -5
45 8 29 1 31 -14 4z"/>
<path d="M2676 1865 c-3 -8 -1 -15 4 -15 6 0 10 7 10 15 0 8 -2 15 -4 15 -2 0
-6 -7 -10 -15z"/>
<path d="M1446 1853 c-6 -14 -5 -15 5 -6 7 7 10 15 7 18 -3 3 -9 -2 -12 -12z"/>
<path d="M2300 1836 c0 -2 8 -10 18 -17 15 -13 16 -12 3 4 -13 16 -21 21 -21
13z"/>
<path d="M1510 1738 l0 -48 130 0 130 0 0 40 c0 22 -1 43 -2 48 -2 4 -60 7
-130 8 l-128 1 0 -49z"/>
<path d="M2570 1740 l0 -50 305 0 305 0 0 50 0 50 -305 0 -305 0 0 -50z"/>
</g>
</svg>
